<?xml version="1.0" standalone="no"?><svg xmlns="http://www.w3.org/2000/svg" viewBox="0 0 1440 320"><path fill="#0099ff" fill-opacity="1" d="M0,288L40,250.7C80,213,160,139,240,106.7C320,75,400,85,480,101.3C560,117,640,139,720,128C800,117,880,75,960,48C1040,21,1120,11,1200,42.7C1280,75,1360,149,1400,186.7L1440,224L1440,320L1400,320C1360,320,1280,320,1200,320C1120,320,1040,320,960,320C880,320,800,320,720,320C640,320,560,320,480,320C400,320,320,320,240,320C160,320,80,320,40,320L0,320Z"></path></svg>